<svg id="Group_15" data-name="Group 15" xmlns="http://www.w3.org/2000/svg" xmlns:xlink="http://www.w3.org/1999/xlink" width="21.864" height="24" viewBox="0 0 21.864 24">
  <defs>
    <clipPath id="clip-path">
      <rect id="Rectangle_10" data-name="Rectangle 10" width="21.864" height="24" fill="gray"/>
    </clipPath>
  </defs>
  <g id="Group_14" data-name="Group 14" clip-path="url(#clip-path)">
    <path id="Path_16" data-name="Path 16" d="M21.86,6.471v-4.4c0-.1,0-.194-.008-.288a1.85,1.85,0,0,0-.5-1.166A2.152,2.152,0,0,0,20.259.008L20.232,0H6.128l-.05.006A2,2,0,0,0,4.459,2.265c.006.09.006.185,0,.286H4.421c-.18,0-2.194,0-2.365,0H2.017a2.727,2.727,0,0,0-.552.057A1.894,1.894,0,0,0,0,4.594q0,3.488,0,6.977v5.242c0,1.693,0,3.444,0,5.18A1.9,1.9,0,0,0,2,24H8.456c2.424,0,4.988,0,7.547,0a2.331,2.331,0,0,0,.649-.086,1.885,1.885,0,0,0,1.363-1.886c0-.176,0-.348,0-.53v-.047h1.858a1.931,1.931,0,0,0,1.207-.375,1.976,1.976,0,0,0,.783-1.7c0-4.31,0-8.68,0-12.906m-4.2.153c-1.181-1.165-2.4-2.383-3.727-3.723a1.116,1.116,0,0,0-.843-.352c-1.838.006-3.7.005-5.5,0H5.806q0-.062,0-.123a5.4,5.4,0,0,1,.046-.716.51.51,0,0,1,.475-.36c.046,0,.1,0,.153,0H19.788c.539,0,.721.182.721.722q0,8.653,0,17.306c0,.535-.184.716-.73.717H18.016V17.456c0-3.261,0-6.632,0-9.948a1.152,1.152,0,0,0-.363-.885m-5.03-.741a2.767,2.767,0,0,0,.064.642A1.883,1.883,0,0,0,14.45,7.935c.5.011,1,.009,1.495.008h.718c0,.016,0,.032,0,.047q0,6.972,0,13.944c0,.522-.192.715-.709.716H2.052c-.5,0-.7-.2-.7-.7q0-8.675,0-17.35c0-.5.2-.7.7-.7H12.624q0,.2,0,.4v.013c0,.537,0,1.043,0,1.562m1.8.694a.493.493,0,0,1-.438-.465c-.011-.378-.009-.756-.007-1.126l1.6,1.6c-.374,0-.761.006-1.153-.009" transform="translate(0)" fill="gray"/>
    <path id="Path_17" data-name="Path 17" d="M78.117,100.367a4.342,4.342,0,0,0-4.346,4.339,4.362,4.362,0,0,0,4.341,4.367h.015a4.361,4.361,0,0,0,4.339-4.331,4.343,4.343,0,0,0-4.331-4.375Zm-.671,2.662v.039c0,.489,0,.994-.006,1.494a.816.816,0,0,0,.564.848c.617.255,1.237.526,1.837.788l.049.021.641.279a3.016,3.016,0,0,1-3.427,1.046,2.994,2.994,0,0,1,.341-5.737v.645q0,.289,0,.578m2.9-.294a3.166,3.166,0,0,1,.717,2.522l-.242-.1c-.629-.272-1.342-.581-2.025-.882-.005-.739,0-1.488,0-2.213v-.271a2.2,2.2,0,0,1,1.554.949" transform="translate(-69.235 -94.196)" fill="gray"/>
    <path id="Path_18" data-name="Path 18" d="M180.943,246.668a.656.656,0,0,0-.464.183.794.794,0,0,0-.219.573c0,.941,0,3.141,0,4.2a.677.677,0,0,0,.67.759h.007a.644.644,0,0,0,.465-.179.783.783,0,0,0,.209-.57c0-.345,0-1.92,0-2.265v-.927q0-.5,0-1.007a.69.69,0,0,0-.667-.765" transform="translate(-169.175 -231.501)" fill="gray"/>
    <path id="Path_19" data-name="Path 19" d="M150.354,262.916c0-.248,0-.5,0-.76h0a.662.662,0,0,0-.653-.719.653.653,0,0,0-.482.18.736.736,0,0,0-.212.537c-.007.7-.007,2.645,0,3.369a.741.741,0,0,0,.209.539.653.653,0,0,0,.466.181h.014a.659.659,0,0,0,.658-.716c0-.242,0-1.716,0-1.953v-.013q0-.162,0-.323,0-.141,0-.282Z" transform="translate(-139.838 -245.361)" fill="gray"/>
    <path id="Path_20" data-name="Path 20" d="M118.6,276.061h-.018a.667.667,0,0,0-.652.672c0,.151,0,.3,0,.451,0,.067,0,.133,0,.2s0,.131,0,.2c0,.155,0,1.546,0,1.705a.662.662,0,0,0,.638.68h.032a.681.681,0,0,0,.466-.176.64.64,0,0,0,.2-.457c.017-.479.016-2.186,0-2.649a.655.655,0,0,0-.667-.625" transform="translate(-110.677 -259.087)" fill="gray"/>
    <path id="Path_21" data-name="Path 21" d="M87.952,291.563c0-.054,0-.1,0-.153a.677.677,0,0,0-.668-.683h-.009a.677.677,0,0,0-.67.677c-.006.146-.011,1.546,0,1.717a.661.661,0,0,0,.67.611h.012a.668.668,0,0,0,.66-.63,1.779,1.779,0,0,0,0-.179v-1.3c0-.021,0-.042,0-.063" transform="translate(-81.272 -272.851)" fill="gray"/>
  </g>
</svg>
