<svg id="Group_19" data-name="Group 19" xmlns="http://www.w3.org/2000/svg" xmlns:xlink="http://www.w3.org/1999/xlink" width="57.112" height="72.6" viewBox="0 0 57.112 72.6">
  <defs>
    <clipPath id="clip-path">
      <rect id="Rectangle_12" data-name="Rectangle 12" width="57.112" height="72.6" fill="#3c9afb"/>
    </clipPath>
  </defs>
  <g id="Group_18" data-name="Group 18" clip-path="url(#clip-path)">
    <path id="Path_29" data-name="Path 29" d="M27.479,72.6c-1.434-.24-2.883-.411-4.3-.73A27.794,27.794,0,0,1,3.61,34.66a1,1,0,0,0-.126-1.09q-1-1.374-1.918-2.8A9.55,9.55,0,0,1,16.876,19.4c.106.125.21.252.359.431a28.323,28.323,0,0,1,14.218-2.76c-.561-.83-1.045-1.519-1.5-2.225A9.572,9.572,0,0,1,35.933.207c.3-.066.591-.138.887-.207h2.264c.676.184,1.37.322,2.027.561A9.526,9.526,0,0,1,45.9,14.78c-2.256,3.459-4.643,6.832-6.984,10.235-.621.9-1.395.879-2.033-.044-1.168-1.689-2.308-3.4-3.5-5.07a1.443,1.443,0,0,0-.883-.56,25.461,25.461,0,0,0-13.979,2.248,1.008,1.008,0,0,0-.182.156,10.147,10.147,0,0,1,.688,4.839,9.656,9.656,0,0,1-1.6,4.337q-3.409,5-6.841,9.991c-.649.944-1.429.941-2.078,0-.914-1.319-1.814-2.648-2.722-3.971-.142-.207-.3-.407-.445-.61l-.231-.015c-.368,1.744-.879,3.472-1.08,5.236a24.89,24.89,0,0,0,6.319,20.31,24.592,24.592,0,0,0,21.188,8.479,25.306,25.306,0,0,0,23.18-21.718c1.409-10.2-2.234-18.479-10.43-24.721a5.178,5.178,0,0,1-.666-.523.963.963,0,0,1-.1-1.3.98.98,0,0,1,1.244-.383,2.526,2.526,0,0,1,.6.367c8.229,6.122,12.25,14.3,11.7,24.576A27.679,27.679,0,0,1,34.573,72.114c-1.083.206-2.181.326-3.273.486ZM9.551,38.682c2.182-3.2,4.4-6.236,6.367-9.419a6.872,6.872,0,0,0-.358-8.049,7,7,0,0,0-7.635-2.927A7.4,7.4,0,0,0,3.379,29.655c1.61,2.44,3.3,4.829,4.948,7.24l1.224,1.787M37.866,22.645c.081-.052.134-.068.158-.1,2.1-3.076,4.319-6.082,6.273-9.251a6.87,6.87,0,0,0-.424-8.107,7,7,0,0,0-7.6-2.854,7.4,7.4,0,0,0-4.538,11.339c1.72,2.623,3.534,5.184,5.307,7.773q.413.6.828,1.2" transform="translate(0)" fill="#3c9afb"/>
    <path id="Path_30" data-name="Path 30" d="M79.207,213.933a9.335,9.335,0,0,1-1.589,5.479q-3.453,5.1-6.954,10.163a1.085,1.085,0,0,1-1.99-.006c-2.353-3.421-4.735-6.823-7.024-10.286a9.43,9.43,0,0,1,.287-10.774,9.55,9.55,0,0,1,17.221,4.5c.045.374.04.754.049.926m-9.521,13.381c2.262-3.37,4.61-6.541,6.6-9.925A7.2,7.2,0,0,0,74.16,208.2a7.4,7.4,0,0,0-9.437.382,7.312,7.312,0,0,0-1.411,9.338c2.006,3.136,4.175,6.167,6.374,9.394" transform="translate(-48.736 -165.884)" fill="#3c9afb"/>
    <path id="Path_31" data-name="Path 31" d="M22.488,112.267a5.3,5.3,0,1,1,5.316,5.283,5.277,5.277,0,0,1-5.316-5.283m2.123-.019a3.152,3.152,0,0,0,3.191,3.174,3.178,3.178,0,0,0-.009-6.357,3.149,3.149,0,0,0-3.182,3.182" transform="translate(-18.236 -86.72)" fill="#3c9afb"/>
    <path id="Path_32" data-name="Path 32" d="M183.036,27.829a5.3,5.3,0,1,1-5.288-5.319,5.3,5.3,0,0,1,5.288,5.319m-2.124.042a3.173,3.173,0,0,0-3.142-3.233,3.189,3.189,0,0,0-.09,6.376,3.175,3.175,0,0,0,3.233-3.143" transform="translate(-139.829 -18.254)" fill="#3c9afb"/>
    <path id="Path_33" data-name="Path 33" d="M87.886,227.119a5.264,5.264,0,0,1,5.327,5.264,5.3,5.3,0,1,1-5.327-5.264m.037,2.127a3.189,3.189,0,0,0-3.193,3.188,3.234,3.234,0,0,0,3.223,3.18,3.187,3.187,0,0,0,3.137-3.175,3.138,3.138,0,0,0-3.167-3.193" transform="translate(-66.99 -184.179)" fill="#3c9afb"/>
  </g>
</svg>
