<svg id="Group_11" data-name="Group 11" xmlns="http://www.w3.org/2000/svg" xmlns:xlink="http://www.w3.org/1999/xlink" width="24" height="18.286" viewBox="0 0 24 18.286">
  <defs>
    <clipPath id="clip-path">
      <rect id="Rectangle_8" data-name="Rectangle 8" width="24" height="18.286" fill="gray"/>
    </clipPath>
  </defs>
  <g id="Group_10" data-name="Group 10" clip-path="url(#clip-path)">
    <path id="Path_7" data-name="Path 7" d="M0,1.829c.035-.127.066-.255.107-.38A2.109,2.109,0,0,1,2.116,0C3.647,0,5.178,0,6.708,0H21.8A2.1,2.1,0,0,1,23.921,1.57,2.5,2.5,0,0,1,24,2.195q.006,6.948,0,13.9a2.107,2.107,0,0,1-2.2,2.194q-9.77,0-19.54,0A2.108,2.108,0,0,1,.035,16.542.644.644,0,0,0,0,16.457V1.829m12.025-.422H2.279c-.617,0-.872.252-.872.861q0,6.878,0,13.756c0,.595.26.854.856.854h19.47c.6,0,.861-.259.861-.85q0-6.89,0-13.779c0-.579-.264-.842-.844-.842H12.025" transform="translate(0 0.001)" fill="gray"/>
    <path id="Path_8" data-name="Path 8" d="M57.626,51.285a6.351,6.351,0,1,1-6.312-6.331,6.341,6.341,0,0,1,6.312,6.331m-2.271,2.76a4.9,4.9,0,0,0-1.017-6.631,4.955,4.955,0,0,0-6.859.727,4.785,4.785,0,0,0-.218,5.95,4.973,4.973,0,0,1,1.924-1.634,2.839,2.839,0,0,1,.2-3.932,2.8,2.8,0,0,1,3.63-.171A2.72,2.72,0,0,1,54.049,50a2.8,2.8,0,0,1-.619,2.419c.356.246.716.456,1.029.72s.592.592.9.9m-1.029,1.1a3.512,3.512,0,0,0-6.075,0,4.9,4.9,0,0,0,6.075,0M52.7,50.581a1.405,1.405,0,1,0-1.4,1.4,1.409,1.409,0,0,0,1.4-1.4" transform="translate(-42.111 -42.139)" fill="gray"/>
    <path id="Path_9" data-name="Path 9" d="M272.413,67.4c.46,0,.92,0,1.38,0a.7.7,0,1,1-.01,1.4q-1.368,0-2.736,0a.706.706,0,1,1,.01-1.405c.452,0,.9,0,1.357,0" transform="translate(-253.359 -63.181)" fill="gray"/>
    <path id="Path_10" data-name="Path 10" d="M272.415,113.734c-.46,0-.92,0-1.38,0a.7.7,0,1,1,.009-1.4q1.368,0,2.736,0a.706.706,0,1,1-.009,1.405c-.452,0-.9,0-1.357,0" transform="translate(-253.359 -105.294)" fill="gray"/>
    <path id="Path_11" data-name="Path 11" d="M272.413,158.662c-.46,0-.92,0-1.38,0a.7.7,0,1,1,.01-1.4q1.368,0,2.736,0a.706.706,0,1,1-.01,1.405c-.452,0-.9,0-1.357,0" transform="translate(-253.358 -147.409)" fill="gray"/>
    <path id="Path_12" data-name="Path 12" d="M272.416,203.589c-.46,0-.92,0-1.38,0a.7.7,0,1,1,.005-1.4q1.368,0,2.736,0a.706.706,0,1,1-.005,1.405c-.452,0-.9,0-1.357,0" transform="translate(-253.359 -189.523)" fill="gray"/>
  </g>
</svg>
