<svg id="Group_13" data-name="Group 13" xmlns="http://www.w3.org/2000/svg" xmlns:xlink="http://www.w3.org/1999/xlink" width="22" height="21.99" viewBox="0 0 22 21.99">
  <defs>
    <clipPath id="clip-path">
      <rect id="Rectangle_9" data-name="Rectangle 9" width="22" height="21.99" fill="#6a0dad"/>
    </clipPath>
  </defs>
  <g id="Group_12" data-name="Group 12" clip-path="url(#clip-path)">
    <path id="Path_13" data-name="Path 13" d="M181.861,177.353l1.259.521c.191-.2.409-.428.635-.652a.77.77,0,1,1,1.086,1.082c-.219.221-.447.434-.646.627.157.412.3.79.449,1.163a.243.243,0,0,0,.186.092c.271.01.544,0,.815.005a.769.769,0,0,1,.819.781.759.759,0,0,1-.817.752c-.272,0-.544-.009-.815.007a.275.275,0,0,0-.2.138c-.15.351-.283.709-.446,1.127.187.178.419.394.644.618a.77.77,0,1,1-1.089,1.076c-.22-.22-.434-.446-.614-.632-.418.159-.791.294-1.157.447a.262.262,0,0,0-.108.2c-.012.279,0,.559-.007.839a.755.755,0,0,1-.76.785.765.765,0,0,1-.771-.78c-.01-.287.007-.576-.009-.863a.274.274,0,0,0-.145-.189c-.343-.148-.693-.278-1.108-.441-.187.194-.417.434-.649.672a.765.765,0,1,1-1.135-1.025c.238-.257.507-.485.726-.691-.165-.431-.3-.8-.454-1.17a.258.258,0,0,0-.194-.111c-.279-.013-.559,0-.839-.007a.766.766,0,1,1-.018-1.531c.279-.011.56-.008.839,0a.205.205,0,0,0,.239-.165,8.774,8.774,0,0,1,.375-.9.188.188,0,0,0-.042-.265c-.2-.192-.4-.391-.594-.593a.766.766,0,1,1,1.088-1.077c.2.189.39.379.576.577a.2.2,0,0,0,.284.051,9.2,9.2,0,0,1,.9-.375.194.194,0,0,0,.157-.22c-.007-.272-.007-.544,0-.815a.783.783,0,0,1,.762-.82.774.774,0,0,1,.771.829c0,.319,0,.638,0,.936m1.335,3.621a2.113,2.113,0,0,0-2.032-2.118,2.137,2.137,0,0,0-2.173,2.153,2.109,2.109,0,0,0,2.1,2.05,2.067,2.067,0,0,0,2.1-2.085" transform="translate(-164.465 -164.339)" fill="#6a0dad"/>
    <path id="Path_14" data-name="Path 14" d="M81.537,0a5.623,5.623,0,1,1-5.62,5.631A5.63,5.63,0,0,1,81.537,0m0,9.711A4.088,4.088,0,1,0,77.452,5.6a4.1,4.1,0,0,0,4.084,4.11" transform="translate(-71.053 -0.001)" fill="#6a0dad"/>
    <path id="Path_15" data-name="Path 15" d="M6.043,198.318q-2.086,0-4.173,0a1.729,1.729,0,0,1-1.863-1.871,14.837,14.837,0,0,1,.04-1.819,4.042,4.042,0,0,1,1.573-2.577,9.913,9.913,0,0,1,3.626-1.841,17.734,17.734,0,0,1,5.225-.732.75.75,0,0,1,.781.714.762.762,0,0,1-.708.814,2.772,2.772,0,0,1-.287.008,16.209,16.209,0,0,0-4.308.585,8.8,8.8,0,0,0-3.315,1.609,4.71,4.71,0,0,0-.677.707,1.9,1.9,0,0,0-.417,1.247c.008.423,0,.847,0,1.271,0,.327.027.352.36.352h8.37c.088,0,.176,0,.264,0a.763.763,0,0,1,.718.806.748.748,0,0,1-.773.722c-1.479,0-2.958,0-4.437,0" transform="translate(0 -177.337)" fill="#6a0dad"/>
  </g>
</svg>
