<svg id="Group_9" data-name="Group 9" xmlns="http://www.w3.org/2000/svg" xmlns:xlink="http://www.w3.org/1999/xlink" width="22" height="21.997" viewBox="0 0 22 21.997">
  <defs>
    <clipPath id="clip-path">
      <rect id="Rectangle_7" data-name="Rectangle 7" width="22" height="21.997" fill="#6a0dad"/>
    </clipPath>
  </defs>
  <g id="Group_8" data-name="Group 8" clip-path="url(#clip-path)">
    <path id="Path_3" data-name="Path 3" d="M10.215,5.892q0,1.926,0,3.852a1.941,1.941,0,0,1-2.032,2.039q-3.08,0-6.16,0A1.939,1.939,0,0,1,0,9.758Q0,5.893,0,2.029A1.937,1.937,0,0,1,2.022,0Q5.114,0,8.206,0a1.937,1.937,0,0,1,2.008,2.013c0,1.292,0,2.585,0,3.877m-8.642,0q0,1.914,0,3.828c0,.368.12.492.479.492H8.164c.359,0,.48-.124.48-.491q0-3.828,0-7.657c0-.375-.12-.492-.5-.492H2.078c-.392,0-.5.116-.5.516q0,1.9,0,3.8" transform="translate(-0.001 0)" fill="#6a0dad"/>
    <path id="Path_4" data-name="Path 4" d="M190.278,161.943q0,1.914,0,3.828a1.944,1.944,0,0,1-2.048,2.049q-3.055,0-6.111,0a1.945,1.945,0,0,1-2.055-2.066q0-3.828,0-7.656a1.944,1.944,0,0,1,2.06-2.06q3.043,0,6.086,0a1.946,1.946,0,0,1,2.067,2.078q0,1.914,0,3.828m-8.642-.04q0,1.914,0,3.828c0,.4.113.517.5.517H188.2c.383,0,.5-.117.5-.492q0-3.828,0-7.657c0-.375-.12-.492-.5-.492H182.14c-.391,0-.5.116-.5.516q0,1.89,0,3.779" transform="translate(-168.279 -145.824)" fill="#6a0dad"/>
    <path id="Path_5" data-name="Path 5" d="M185.149,8.649q-1.521,0-3.043,0a1.944,1.944,0,0,1-2.046-2.05q0-2.27,0-4.539A1.942,1.942,0,0,1,182.105.009q3.067,0,6.135,0a1.94,1.94,0,0,1,2.033,2.037q0,2.282,0,4.564a1.942,1.942,0,0,1-2.032,2.039c-1.031,0-2.061,0-3.092,0m.018-7.07h-3.019c-.4,0-.516.113-.516.5q0,2.245,0,4.491c0,.391.116.5.516.5h6.038c.4,0,.516-.113.516-.5q0-2.245,0-4.491c0-.391-.116-.5-.517-.5h-3.019" transform="translate(-168.275 -0.007)" fill="#6a0dad"/>
    <path id="Path_6" data-name="Path 6" d="M5.122,204.042c1.022,0,2.045,0,3.067,0a1.939,1.939,0,0,1,2.024,2.022q0,2.294,0,4.588a1.941,1.941,0,0,1-2.041,2.03q-3.067,0-6.135,0A1.942,1.942,0,0,1,0,210.647q0-2.282,0-4.564a1.942,1.942,0,0,1,2.054-2.042q1.534,0,3.067,0m0,1.571H2.1c-.418,0-.528.108-.528.517q0,2.233,0,4.466c0,.407.111.516.529.516H8.114c.417,0,.528-.109.528-.517q0-2.233,0-4.466c0-.407-.112-.515-.529-.515H5.119" transform="translate(0 -190.686)" fill="#6a0dad"/>
  </g>
</svg>
