<svg id="Group_37" data-name="Group 37" xmlns="http://www.w3.org/2000/svg" xmlns:xlink="http://www.w3.org/1999/xlink" width="53.458" height="73" viewBox="0 0 53.458 73">
  <defs>
    <clipPath id="clip-path">
      <rect id="Rectangle_27" data-name="Rectangle 27" width="53.458" height="73" fill="#3c9afb"/>
    </clipPath>
  </defs>
  <g id="Group_36" data-name="Group 36" clip-path="url(#clip-path)">
    <path id="Path_55" data-name="Path 55" d="M46.79,0c1.437.624,1.826,1.763,1.821,3.263-.034,12.185-.015,24.369-.03,36.554a1.948,1.948,0,0,0,.505,1.406c1.226,1.386,2.424,2.8,3.618,4.212a2.427,2.427,0,0,1-.279,3.747c-1.735,1.511-3.488,3-5.235,4.5a2.729,2.729,0,0,1-1.971.65,1.487,1.487,0,0,0-.925.265c-1.16.94-2.28,1.929-3.447,2.929.11.19.213.367.315.544A3.592,3.592,0,0,1,38.7,63.46a.974.974,0,0,0-.9.764,3.6,3.6,0,0,1-3.423,2.515c-.747,2.151-1.541,2.832-3.714,3.169A3.863,3.863,0,0,1,27.722,73H26.3c-1.491-.424-2.332-1.629-3.24-2.74a.935.935,0,0,0-1.075-.376,3.515,3.515,0,0,1-4.237-2.98.767.767,0,0,0-.627-.775A3.351,3.351,0,0,1,14.6,63.257a.83.83,0,0,0-.667-.818,3.579,3.579,0,0,1-2.582-3.484c-.175-.057-.35-.115-.526-.17A3.565,3.565,0,0,1,8.5,54.023a1.548,1.548,0,0,0-1.218-1.793,2.557,2.557,0,0,1-2.1-.987c-1.49-1.754-3-3.491-4.487-5.247a2.4,2.4,0,0,1,.25-3.6c1.121-.988,2.253-1.964,3.4-2.916a1.336,1.336,0,0,0,.524-1.151c-.015-9.143,0-18.286-.024-27.429A3.664,3.664,0,0,1,6.017,8.062c2.264-2.2,4.456-4.468,6.706-6.681A19.033,19.033,0,0,1,14.488,0Zm-.682,2.468H15.786v.8c0,1.71.01,3.421,0,5.131a2.419,2.419,0,0,1-2.542,2.556c-1.327.018-2.655,0-3.983,0H7.337V36.878c.3-.25.518-.42.725-.6,2.017-1.73,4.026-3.469,6.05-5.191a2.374,2.374,0,0,1,3.538.22c1.565,1.784,3.1,3.6,4.634,5.406a2.411,2.411,0,0,1,.424,2.6c-.047.122-.074.252-.119.409.8.213,1.558.389,2.3.624a.89.89,0,0,0,1.011-.255,4.107,4.107,0,0,1,2.964-1.165c.731-.016,1.461-.088,2.246-.139A2.726,2.726,0,0,1,32.131,35.3c1.65-1.355,3.242-2.779,4.866-4.166a2.426,2.426,0,0,1,3.7.267c.9,1.037,1.792,2.09,2.687,3.136.875,1.022,1.752,2.042,2.729,3.182ZM28.756,47.21c-1.853,1.583-3.625,3.121-5.424,4.627a3.606,3.606,0,0,1-5.158-.333,3.645,3.645,0,0,1,.477-5.21c1.325-1.152,2.662-2.289,3.991-3.435.153-.132.293-.277.495-.469-.823-.219-1.546-.451-2.288-.589a1.2,1.2,0,0,0-.868.205c-1.105.9-2.173,1.838-3.252,2.766l-7,6.022c.383.754.8,1.2,1.766.982a3.356,3.356,0,0,1,1.917.3,3.577,3.577,0,0,1,2.095,3.312,3.715,3.715,0,0,1,3.151,3.656c2.089.623,2.8,1.456,3.152,3.67,2.781.954,3.481,2.3,2.733,5.226a.648.648,0,0,0,.135.487c.462.572.937,1.135,1.435,1.676a1.167,1.167,0,0,0,1.708.17,1.193,1.193,0,0,0,.109-1.72c-.259-.339-.568-.641-.811-.991a1.172,1.172,0,0,1,.194-1.605,1.2,1.2,0,0,1,1.618.054c.29.277.53.607.8.9a1.2,1.2,0,0,0,1.764.208,1.236,1.236,0,0,0,.047-1.782c-.45-.551-.929-1.079-1.379-1.63a1.221,1.221,0,1,1,1.857-1.559c.441.5.858,1.015,1.3,1.514a1.246,1.246,0,0,0,1.812.276,1.216,1.216,0,0,0,.017-1.827c-.685-.819-1.393-1.619-2.076-2.44a1.226,1.226,0,1,1,1.859-1.557c.669.77,1.324,1.553,1.991,2.325.651.755,1.31.888,1.9.393s.564-1.211-.056-1.94c-.722-.85-1.45-1.694-2.176-2.541L28.756,47.21m22.254-.017L38.738,32.852,33.25,37.571,45.525,51.9l5.485-4.707M7.151,49.808,20.484,38.348l-4.7-5.5L2.443,44.309l4.708,5.5m35.742,2.759c-3.245-3.788-6.421-7.5-9.612-11.2a.845.845,0,0,0-.6-.236c-1.325.061-2.652.126-3.971.261a2.222,2.222,0,0,0-1.138.483c-2.43,2.048-4.834,4.127-7.243,6.2-.737.634-.86,1.329-.351,1.9.477.54,1.189.527,1.885-.065,1.535-1.306,3.061-2.624,4.591-3.937.846-.726,1.684-1.461,2.542-2.173a1.116,1.116,0,0,1,1.5-.056,1.045,1.045,0,0,1,.369,1.441c-.282.46-.052.685.2.976q3.45,4.026,6.9,8.056c.412.481.831.957,1.284,1.479l3.652-3.133M13.318,4.584,9.376,8.478h3.942Zm4.831,59.288a1.188,1.188,0,0,0,1.185-1.233,1.2,1.2,0,0,0-1.185-1.168,1.2,1.2,0,0,0,0,2.4m3.165,3.679a1.194,1.194,0,0,0,1.156-1.264,1.173,1.173,0,0,0-1.208-1.131,1.215,1.215,0,0,0-1.174,1.184,1.231,1.231,0,0,0,1.227,1.211m-5.121-8.542a1.2,1.2,0,0,0-1.148-1.2A1.221,1.221,0,0,0,13.8,58.994a1.19,1.19,0,0,0,1.157,1.189,1.175,1.175,0,0,0,1.235-1.173m-3.137-3.633a1.2,1.2,0,1,0-1.286,1.129,1.185,1.185,0,0,0,1.286-1.129" transform="translate(0)" fill="#3c9afb"/>
    <path id="Path_56" data-name="Path 56" d="M154.309,66.364c-1.92,0-3.84.006-5.76,0-.939,0-1.451-.425-1.47-1.173-.019-.779.517-1.255,1.473-1.257q5.8-.011,11.591,0c.934,0,1.508.508,1.483,1.26-.024.733-.557,1.165-1.487,1.169-1.944.008-3.887,0-5.831,0" transform="translate(-119.119 -51.774)" fill="#3c9afb"/>
    <path id="Path_57" data-name="Path 57" d="M154.335,115.242c1.92,0,3.84-.005,5.76,0,.956,0,1.515.474,1.5,1.229-.017.728-.569,1.2-1.474,1.2q-5.831.012-11.662,0a1.236,1.236,0,0,1-1.365-.9,1.08,1.08,0,0,1,.529-1.342,2.172,2.172,0,0,1,.955-.185c1.92-.016,3.84-.008,5.76-.008" transform="translate(-119.084 -93.333)" fill="#3c9afb"/>
    <path id="Path_58" data-name="Path 58" d="M120.473,91.99c-1.4,0-2.794.027-4.19-.009-1.027-.027-1.653-.964-1.136-1.738a1.639,1.639,0,0,1,1.14-.658c2.769-.056,5.539-.041,8.309-.021a1.213,1.213,0,1,1,0,2.418c-1.373.027-2.746.007-4.119.008" transform="translate(-93.107 -72.523)" fill="#3c9afb"/>
    <path id="Path_59" data-name="Path 59" d="M120.59,140.855c1.35,0,2.7-.008,4.049,0a1.23,1.23,0,0,1,1.378,1.2,1.245,1.245,0,0,1-1.378,1.22q-4.084.019-8.169,0a1.226,1.226,0,0,1-1.366-1.222c0-.737.5-1.193,1.365-1.2,1.373-.011,2.747,0,4.12,0" transform="translate(-93.223 -114.075)" fill="#3c9afb"/>
    <path id="Path_60" data-name="Path 60" d="M59.929,119.421c.9-1.2,1.762-2.36,2.635-3.509a1.259,1.259,0,0,1,1.838-.4,1.245,1.245,0,0,1,.119,1.832q-1.708,2.314-3.446,4.606a1.211,1.211,0,0,1-2,.151c-.328-.308-.641-.632-.953-.955-.616-.637-.68-1.281-.191-1.824.459-.509,1.077-.519,1.773-.029.057.04.12.07.229.132" transform="translate(-46.653 -93.346)" fill="#3c9afb"/>
    <path id="Path_61" data-name="Path 61" d="M59.922,68.176c.882-1.177,1.733-2.317,2.59-3.453.579-.768,1.271-.936,1.878-.467a1.256,1.256,0,0,1,.086,1.888q-1.653,2.232-3.327,4.447c-.684.9-1.385.934-2.2.133-.287-.283-.575-.567-.854-.858a1.219,1.219,0,1,1,1.581-1.851c.057.039.116.076.245.16" transform="translate(-46.649 -51.829)" fill="#3c9afb"/>
    <path id="Path_62" data-name="Path 62" d="M116.892,66.327c-.165,0-.331.007-.5,0a1.211,1.211,0,1,1-.068-2.419,7.162,7.162,0,0,1,1.274.012,1.2,1.2,0,0,1-.072,2.4c-.211.016-.425,0-.638,0v.005" transform="translate(-93.224 -51.739)" fill="#3c9afb"/>
    <path id="Path_63" data-name="Path 63" d="M116.915,115.258c.189,0,.379-.01.567,0a1.177,1.177,0,0,1,1.231,1.188,1.2,1.2,0,0,1-1.2,1.229,7.442,7.442,0,0,1-1.2,0,1.2,1.2,0,0,1-1.2-1.237,1.184,1.184,0,0,1,1.242-1.179c.188-.012.378,0,.567,0" transform="translate(-93.224 -93.343)" fill="#3c9afb"/>
  </g>
</svg>
