<svg xmlns="http://www.w3.org/2000/svg" xmlns:xlink="http://www.w3.org/1999/xlink" width="73" height="73" viewBox="0 0 73 73">
  <defs>
    <clipPath id="clip-path">
      <rect id="Rectangle_26" data-name="Rectangle 26" width="73" height="73" transform="translate(-0.4 -0.4)" fill="#3c9afb"/>
    </clipPath>
  </defs>
  <g id="Group_35" data-name="Group 35" transform="translate(0.4 0.667)">
    <g id="Group_35-2" data-name="Group 35" transform="translate(0 -0.267)" clip-path="url(#clip-path)">
      <path id="Path_50" data-name="Path 50" d="M0,68.749c5.344,0,10.689,0,16.033-.013a1.2,1.2,0,0,0,.846-.312,17.973,17.973,0,0,1,8.492-5.718c2.191-.744,4.476-1.215,6.853-1.844-.074-.433-.151-1.049-.289-1.651-.493-2.141-.229-4.313-.282-6.472-.013-.51,0-.906-.6-1.177a1.455,1.455,0,0,1-.513-1.122c-.048-2.259-.023-4.52-.023-6.78v-.755c-1.257-.706-1.257-.706-.555-2.863a2.106,2.106,0,0,0-2.224-.158,3.283,3.283,0,0,1-3.521.006,14.335,14.335,0,0,0-2.352-.948A21.947,21.947,0,0,1,16.379,35.8a4.117,4.117,0,0,1-.728-.943c.076.019.03,0-.015,0-2,.092-2.113-.445-2.082-2.174.038-2.115.009-2.115,2.064-2.622,1.027-.254,2.062-.48,3.078-.771a1.3,1.3,0,0,1,1.614.636c.508.792,1.017,1.586,1.577,2.341a2.038,2.038,0,0,0,.81.587,5.784,5.784,0,0,0,6.075-.643,9.778,9.778,0,0,1,1.444-.734c1.322-.648,2.578-1.536,4.312-1.05-.546-1.376-1.012-2.6-1.53-3.8-.083-.193-.382-.311-.6-.42a9.491,9.491,0,0,0-.979-.4,1.26,1.26,0,0,1-.906-1.347c.021-.989,0-1.978.008-2.966a1.166,1.166,0,0,1,1.139-1.342c1.575-.275,3.151-.548,4.729-.8a5.529,5.529,0,0,1,6.565,5.524c.024,1.636.036,3.245-1.037,4.651-.188.247-.039.731-.1,1.1a4.6,4.6,0,0,0,1.827,4.509c2.065,1.843,1.854,1.4.89,3.991-.821,2.2-1.651,4.4-2.457,6.609a1.547,1.547,0,0,0-.091.878c1.344,4.841,1.867,9.836,2.76,14.76a.9.9,0,0,0,.761.828,21.126,21.126,0,0,1,8.421,4.569,5.041,5.041,0,0,1,.973,1.016,2.155,2.155,0,0,0,2.18,1c5.085-.042,10.17-.02,15.256-.02v2.26H56.967a8.946,8.946,0,0,1,.361,5.651h15v2.26c-5.084,0-10.169.009-15.253-.013a1.253,1.253,0,0,0-1.067.578,27.711,27.711,0,0,1-3.336,3.509,22.239,22.239,0,0,1-9.66,4.243c-1.559.325-3.153.488-4.731.725H34.047a5.27,5.27,0,0,0-.617-.119,28.7,28.7,0,0,1-9.154-2.169A17.019,17.019,0,0,1,16.311,79.5a1.1,1.1,0,0,0-1.058-.588c-5.084.022-10.169.013-15.253.013V76.66H15.016a8.877,8.877,0,0,1,.344-5.651H0ZM33.3,66.7c-1.051.228-2.048.389-3.013.665a12.621,12.621,0,0,0-6.223,3.557,4.864,4.864,0,0,0-.016,6.939,10.737,10.737,0,0,0,3.647,2.611,19.423,19.423,0,0,0,8.919,1.752c1.6-.051,3.188-.316,4.782-.484-1.748-1.37-1.977-2.51-.86-4.3A11.819,11.819,0,0,0,41.4,75.9a1.876,1.876,0,0,0,.155-1.105c-.693-2.782-1.433-5.552-2.162-8.325-.047-.18-.125-.353-.188-.529.021,1.882.15,3.734.323,5.582a1.716,1.716,0,0,1-.733,1.766c-1.156.809-2.261,1.691-3.4,2.529a2.548,2.548,0,0,1-3.409-.121,2.5,2.5,0,0,1-.173-3.4c.55-.764,1.149-1.493,1.678-2.27a1.436,1.436,0,0,0,.24-.893c-.088-.767-.267-1.524-.438-2.433m-.617-3.371a24.813,24.813,0,0,0-6.192,1.36,16.856,16.856,0,0,0-7.675,4.947,7.085,7.085,0,0,0-.173,9.387,13.641,13.641,0,0,0,5.387,4.12,29.713,29.713,0,0,0,21.624,1.067,16.377,16.377,0,0,0,7.61-4.666c2.367-2.669,2.8-5.858,1.092-8.723C52.317,67.408,49,65.771,45.385,64.5c0,1.438.135,1.667,1.242,2.29a12.194,12.194,0,0,1,3.681,3.033,7.108,7.108,0,0,1,.048,9.115,11.8,11.8,0,0,1-4.281,3.388,23.2,23.2,0,0,1-15.29,1.59,15.474,15.474,0,0,1-8.006-4.06,7.534,7.534,0,0,1-2.429-5.319,7.692,7.692,0,0,1,2.87-5.976,16.354,16.354,0,0,1,7.4-3.617c.748-.177,1.507-.305,2.288-.461l-.226-1.154M38.243,52.95c1.731,7.209,3.748,14.289,5.554,21.413h1.053L40.866,52.337l-2.623.613M32.775,43.5c0,2.116-.011,4.064.017,6.012a.729.729,0,0,0,.382.538,10.187,10.187,0,0,0,6.83.16c.361-.113.481-.294.373-.668a16.147,16.147,0,0,1-.482-1.908,1.331,1.331,0,0,0-.871-1.067c-1.4-.665-2.773-1.376-4.16-2.063-.646-.32-1.3-.625-2.089-1m2.293-10.825a4,4,0,0,0-3,.4c-1.765.882-3.518,1.789-5.3,2.627a2.339,2.339,0,0,1-1.333.147c-1.075-.2-2.13-.5-3.22-.763l-.454,1.37c1.352.544,2.65,1.082,3.962,1.587a1.128,1.128,0,0,0,1.4-.733c.081-.929.282-1.164,1.208-1.355q2.588-.533,5.18-1.05a1.16,1.16,0,0,1,1.518.885c.256.731.478,1.474.74,2.2.065.182.2.433.347.477.822.238,1.66.422,2.532.634l.6-3.647c-1.04.117-1.974,1.053-3-.007-.777-.806-1.518-1.548-1.188-2.77m-1.119,20a34.684,34.684,0,0,0,.04,4.947c.533,3.65,1.3,7.266,1.922,10.9a1.562,1.562,0,0,0,1.126,1.262L35.976,52.971l-2.027-.3M46.306,69.348c.024.228.03.434.069.634.333,1.681.686,3.358,1,5.043a2.557,2.557,0,0,1-.054,1.1,10.564,10.564,0,0,1-2.1,4.044,14.661,14.661,0,0,0,2.7-1.95c2.9-2.853,2.133-7.052-1.61-8.868m-4.876-33.2c-.252,1.484-.487,2.9-.733,4.308-.17.972-.683,1.3-1.662,1.061-1.068-.258-2.135-.522-3.253-.8l-.493,1.458,4.783,2.381c.751-2.007,1.467-3.92,2.182-5.833.524-1.4.523-1.4-.568-2.409a2.588,2.588,0,0,0-.256-.17m-5.531-8.4.864,2.132c1.049-.523,2.064-1,3.048-1.534a1.534,1.534,0,0,0,.754-1.4H38.49c-.466,1.132-.466,1.132-2.591.8m4.735-3.111a3.242,3.242,0,0,0-4.6-2.856,5.7,5.7,0,0,1,1.892.9,5.615,5.615,0,0,1,.723,1.958ZM19.714,35.311c.285-.749.674-1.35.063-2.163-1.126-1.5-1.068-1.545-2.913-1.074-.35.089-.691.217-1.036.327l.045.182c.229,0,.458,0,.687,0,1.109.006,1.381.259,1.533,1.364a.73.73,0,0,0,.247.45c.431.317.89.6,1.375.913M33.13,41.289a3.491,3.491,0,0,0-.085-3.993l-2.119.448c.6.407,1.441.685,1.673,1.226s-.167,1.329-.3,2.057l.827.262m6.389-10.24a11.909,11.909,0,0,0-1.941,1.012c-.235.18-.222.729-.241,1.114,0,.088.343.3.5.272,1.575-.232,1.755-.459,1.715-2.029,0-.091-.017-.181-.036-.369M36.1,25.23l.161-.116c-.124-.3-.167-.777-.387-.883-.982-.474-2.015-.843-3.029-1.249l-.162.118c.124.3.167.778.387.883.983.473,2.015.841,3.03,1.247M33.414,73.974c.575.134,2-.787,2.981-1.828l-1.11-.732-1.871,2.56M44.65,76.639c-.389.041-.923-.054-1.063.138-.565.777-1.008,1.642-1.524,2.522.89.015,2.2-1.361,2.587-2.659" transform="translate(0 -15.362)" fill="#3c9afb"/>
      <path id="Path_51" data-name="Path 51" d="M71.684,0A1.741,1.741,0,0,1,72.4,1.639c-.041,1.624-.008,3.249-.015,4.873,0,.981-.39,1.373-1.356,1.4a12.392,12.392,0,0,0-8.665,3.712,5.9,5.9,0,0,1-.562.535,1.093,1.093,0,0,1-1.825-.782q-.071-3.459.013-6.921a1.486,1.486,0,0,1,.611-.954A17.718,17.718,0,0,1,69.169.129,4.549,4.549,0,0,0,69.706,0Zm-1.6,5.686V2.319a15.677,15.677,0,0,0-7.5,2.554c-.144.094-.34.259-.343.4-.028,1.11-.016,2.22-.016,3.464a15.09,15.09,0,0,1,7.861-3.047" transform="translate(-48.657 0.269)" fill="#3c9afb"/>
      <path id="Path_52" data-name="Path 52" d="M258.073,102.808c0,1.741.039,3.484-.025,5.223a2.56,2.56,0,0,1-.538,1.447,20.922,20.922,0,0,1-12.694,7.285c-1.086.2-2.167.429-3.25.643-.982.194-1.57-.257-1.572-1.249q-.013-5.471,0-10.942a1.144,1.144,0,0,1,1.086-1.315,30.68,30.68,0,0,0,9.412-3.269,26.307,26.307,0,0,0,5.347-4.012c.436-.428.876-.813,1.547-.517s.7.866.693,1.482c-.012,1.741,0,3.483,0,5.224m-2.261-3.117a29.271,29.271,0,0,1-13.533,6.238v9.02c.794-.155,1.547-.307,2.3-.448a18.737,18.737,0,0,0,10.821-6.022,1.361,1.361,0,0,0,.391-.772c.029-2.608.017-5.216.017-8.015" transform="translate(-194.783 -77.646)" fill="#3c9afb"/>
      <path id="Path_53" data-name="Path 53" d="M53.93,106.461c0-1.059.006-2.118,0-3.177a1.149,1.149,0,0,1,.771-1.216,1.123,1.123,0,0,1,1.312.428c.83.962,1.637,1.945,2.492,2.883a13.445,13.445,0,0,0,9.842,4.521c1.02.035,1.4.409,1.406,1.423.005,1.741.009,3.483,0,5.224a1.119,1.119,0,0,1-1.119,1.273,14.514,14.514,0,0,1-14.245-6.887,3.225,3.225,0,0,1-.435-1.509c-.067-.984-.02-1.975-.019-2.964m13.544,5.674a16.154,16.154,0,0,1-11.284-5.941c0,1.015-.047,1.853.018,2.682a2.888,2.888,0,0,0,.416,1.357,12.117,12.117,0,0,0,7.651,5.138,30.6,30.6,0,0,0,3.2.369Z" transform="translate(-43.758 -82.514)" fill="#3c9afb"/>
      <path id="Path_54" data-name="Path 54" d="M300.417,14.924c0,1.223-.012,2.447,0,3.67a1.2,1.2,0,0,1-.8,1.335,1.219,1.219,0,0,1-1.393-.571q-1.275-1.555-2.576-3.089a8.424,8.424,0,0,0-6.344-3.058c-.924-.035-1.313-.43-1.317-1.365q-.012-2.611,0-5.222a1.151,1.151,0,0,1,1.14-1.334,10.546,10.546,0,0,1,9.907,3.518,4.454,4.454,0,0,1,1.4,3.789,18.14,18.14,0,0,0-.017,2.327m-2.266.83c0-1.578,0-2.929-.006-4.279a.587.587,0,0,0-.138-.31,9.3,9.3,0,0,0-3.113-2.807,7.831,7.831,0,0,0-4.6-.915v3.572a11.184,11.184,0,0,1,7.856,4.741" transform="translate(-233.737 -3.9)" fill="#3c9afb"/>
    </g>
  </g>
</svg>
