<svg id="Group_39" data-name="Group 39" xmlns="http://www.w3.org/2000/svg" xmlns:xlink="http://www.w3.org/1999/xlink" width="70" height="70" viewBox="0 0 70 70">
  <defs>
    <clipPath id="clip-path">
      <rect id="Rectangle_28" data-name="Rectangle 28" width="70" height="70" fill="#3c9afb"/>
    </clipPath>
  </defs>
  <g id="Group_38" data-name="Group 38" clip-path="url(#clip-path)">
    <path id="Path_64" data-name="Path 64" d="M0,66.445v-45.8a1.683,1.683,0,0,1,1.823-1.106c1.751.042,3.5.018,5.257.011a4.1,4.1,0,1,0,0-8.2c-1.753-.007-3.506-.031-5.257.011A1.689,1.689,0,0,1,0,10.254v-6.7a.3.3,0,0,0,.029-.061A4.424,4.424,0,0,1,3.418,0H32.949c2.689,1.007,3.418,2.064,3.418,4.953V33.587h8.615c0-1.454-.025-2.864,0-4.272a6.846,6.846,0,0,1,6.345-6.6,6.745,6.745,0,0,1,7.176,5.736,42.674,42.674,0,0,1,.135,4.432c.006.24,0,.479,0,.757,2.49,0,4.879-.015,7.269,0a4.05,4.05,0,0,1,3.858,2.84c.077.236.153.472.23.709V66.445a13.354,13.354,0,0,1-.459,1.268A4.405,4.405,0,0,1,66.582,70H3.418c-.416-.168-.847-.305-1.244-.51A4.39,4.39,0,0,1,0,66.445M2.766,33.633h9.4c1.516,0,1.918.395,1.918,1.885,0,1.731-.008,3.463,0,5.194a4.1,4.1,0,1,0,8.2.022c.009-1.8,0-3.6,0-5.4,0-1.221.48-1.7,1.7-1.7q4.443,0,8.885,0h.759v-.77q0-14.147,0-28.3c0-1.406-.428-1.833-1.838-1.833H4.593a5.405,5.405,0,0,0-.547.009A1.207,1.207,0,0,0,2.815,3.821c-.075,1.58-.025,3.166-.025,4.8,1.623,0,3.193-.038,4.761.008a6.836,6.836,0,0,1,6.522,6.281,6.725,6.725,0,0,1-5.663,7.23,43.668,43.668,0,0,1-4.84.144c-.262.006-.524,0-.8,0Zm33.627,33.6c.141.017.208.033.274.033q14.523,0,29.046,0c1.033,0,1.537-.554,1.537-1.661q0-13.771,0-27.542c0-1.2-.5-1.689-1.715-1.69-2.665,0-5.331,0-8,0-1.131,0-1.624-.5-1.628-1.625-.006-1.709.012-3.417-.006-5.126a4.1,4.1,0,1,0-8.193.005c-.011,1.686,0,3.372,0,5.058,0,1.2-.494,1.688-1.713,1.689q-4.442,0-8.885,0H36.4v8.616c1.556,0,3.078-.023,4.6,0a6.814,6.814,0,0,1,2.1,13.255,9.5,9.5,0,0,1-2.543.392c-1.378.063-2.761.017-4.163.017ZM2.747,36.384v.6q0,14.285,0,28.571c0,1.239.491,1.711,1.764,1.711q14.217,0,28.435,0c.218,0,.436-.02.687-.031v-.81q0-4.409,0-8.817c0-1.21.485-1.685,1.709-1.687,1.777,0,3.554,0,5.331,0a4.1,4.1,0,1,0,.019-8.2c-1.8-.006-3.6,0-5.4,0-1.164,0-1.658-.5-1.66-1.669q-.006-4.443,0-8.886v-.744H25.018c0,1.57.024,3.094,0,4.617a6.845,6.845,0,0,1-6.148,6.656,6.661,6.661,0,0,1-7.214-5.071,32.783,32.783,0,0,1-.293-5.229c-.015-.329,0-.66,0-1Z" fill="#3c9afb"/>
    <path id="Path_65" data-name="Path 65" d="M37.775,341.741c-1.3,0-2.6.007-3.895,0a1.37,1.37,0,1,1-.023-2.723q3.963-.013,7.926,0a1.365,1.365,0,1,1,.023,2.722c-1.344.013-2.688,0-4.031,0" transform="translate(-26.453 -277.211)" fill="#3c9afb"/>
    <path id="Path_66" data-name="Path 66" d="M110.032,340.41a1.363,1.363,0,0,1-1.342,1.358,1.361,1.361,0,1,1,1.342-1.358" transform="translate(-87.748 -277.241)" fill="#3c9afb"/>
  </g>
</svg>
